<svg xmlns="http://www.w3.org/2000/svg">
  <defs>
    <style>svg{display:none}svg:target{display:inline}</style>
  </defs>
  <svg id="ml" width="23.8" height="47.9" viewBox="0 0 23.8 47.9"><path fill="#C77B58" d="m19 33 1-1 3-5-5-9-11-1-7 12 6 3v12h3l1-2 5-3 5 5h4z"/><path fill="#D1B187" d="M22 10V9c0-2-2-4-4-4h-7C9 5 7 7 7 9v3c0 2 5 8 7 8h4c2 0 4 0 4-2v-8z"/><path fill="none" d="m10 42-1 2h11l-4-5z"/><path fill="#79444A" d="M6 48h2l1-4H6zM20 44l1 2v2h3v-4zM6 6h17v4H6zM6 32h14v3H6z"/><path fill="#574852" d="m15 35-8 7-4-2 3-5zM16 35l4 6h4l-4-6z"/><path fill="#847875" d="M7 20h12v12H7z"/><path fill="#574852" d="m16 20 4 6h3l-3-6zM7 17l-7 7 8 4 9-11z"/><path fill="#C77B58" d="m7 6 8-6 7 6zM7 10 4 21h13l1-11z"/></svg>
  <svg id="sh" width="27.6" height="27.6" viewBox="0 0 27.6 27.6"><circle cx="13.8" cy="13.8" r="13.8" fill="#AE5D40"/><path fill="#79444A" d="M12 10h3v8h-3z"/><path fill="#D1B187" d="M12 12h3v3l-2 1h-3z"/></svg>
  <svg id="sw" width="8.7" height="31.6" viewBox="0 0 8.7 31.6"><path fill="#D1B187" d="m1 28-1 3 5 1 2-2-1-3H4z"/><path fill="#D2C9A5" d="M4 26V0s9 7 2 26H4z"/><path fill="#AE5D40" d="M3 26h4v1H3z"/></svg>
  <svg id="bw" width="30.6" height="28.2" viewBox="0 0 30.6 28.2"><path fill="#574852" d="M21.2 27.7 2.9 14.1 21.2.5l.2.3L3.6 14.1l17.8 13.3z"/><path fill="#AE5D40" d="M20.8 0s2.7 4.4 2.7 14.1-2.7 14.1-2.7 14.1 4.7-3 4.7-14.1S20.8 0 20.8 0z"/><path fill="#4D4539" d="M6.8 13.7h22.6v.8H6.8z"/><path fill="#D2C9A5" d="m30.6 14.1-3-1.7.4 1.7-.4 1.7z"/><path fill="#D1B187" d="M.7 12.8 0 15.7l4.8.8 2.3-1.9-1-2.5-2.6-.1z"/></svg>
  <svg id="cs" width="44" height="103.8" viewBox="0 0 44 103.8"><path fill="#BA9158" d="M44 8V0h-8v8h-4V0h-8v8h-4V0h-8v8H8V0H0v104h44z"/><path fill="#927441" d="M0 16h44v4H0zM22 48h-5s0-16 5-16 5 16 5 16h-5z"/></svg>
  <svg id="eu" width="23.8" height="43.8" viewBox="0 0 23.8 43.8"><path fill="#847875" d="m19 29 1-1 3-5-5-10H7L0 25l6 3v12h3l1-2 5-3 5 5h4z"/><path fill="#79444A" d="M6 44h2l1-4H6zM20 40l1 2v2h3v-4zM6 28h14v3H6z"/><path fill="#BA9158" d="M7 13h2v5l9-1-1-4h2l1 4v11H7z"/><path fill="#AB9B8E" d="M7 6c0-1 0-1 0 0V5c0-3 3-5 7-5s7 2 7 5v9c0 2-1 2-4 2h-3c-3 0-7-2-7-4V6z"/><path fill="#574852" d="M13 6h8v2h-1v6h-2V8h-5z"/><path fill="#BA9158" d="m20 31 2 5H5l1-5z"/></svg>
  <svg id="fs" width="5" height="4" viewBox="0 0 5 4"><path fill="#D1B187" d="M2 0h3v3L2 4H0z"/></svg>
  <svg id="cd" width="59.9" height="26.4" viewBox="0 0 59.9 26.4"><path fill="#D2C9A5" d="M60 26s0-14-15-14c1 0 1-12-11-12S22 7 22 7 10 5 10 17c0 0-10 0-10 9h60z"/></svg>
  <svg id="hr" width="54.3" height="44.1" viewBox="0 0 54.3 44.1"><path fill="#4B3D44" d="m34 3-7 20h3l6-17V4zM12 24H5l-5 9h5l3-6h4z"/><path fill="#927441" d="M41 6V0h-5v6l-6 17H12v10h25l5-18h12V6z"/><path fill="#BA9158" d="M37 33H12v5h24l5-5 3-18h-2z"/><path fill="#927441" d="M12 27v17h4v-8l5-5v-4zM38 27v4l-2 5v8h-4V27z"/><path fill="#4B3D44" d="M12 43h4v1h-4zM32 43h4v1h-4zM52 6l2 2V6z"/></svg>
  <svg id="sl" width="21.9" height="37.5" viewBox="0 0 21.9 37.5"><path fill="#574852" d="M0 0h22v38H0z"/><path fill="#847875" d="M1 2h20v34H1z"/><path fill="#79444A" d="M10 16h2v8h-2z"/><path fill="#D1B187" d="M10 18h2v3l-2 1H7z"/></svg>
  <svg id="gn" width="38.1" height="5.7" viewBox="0 0 38.1 5.7"><path fill="#AE5D40" d="M10 0h28v5H10z"/><path fill="#4D4539" d="M3 1h7v3H3z"/><path fill="#79444A" d="M29 0h1v5h-1zM19 0h1v5h-1z"/><path fill="#D1B187" d="M1 1 0 4l5 1 2-2-1-2-2-1zM22 6V4h4v2z"/></svg>
  <svg id="ics" width="16" height="16" viewBox="0 0 16 16"><path fill="#4b726e" d="M11.8 5.5V1.2h-1.4v1.4h-.7V1.2H8.3v1.4h-.7V1.2H6.3v1.4h-.7V1.2H4.2v4.3h1l-.9 9.3h7.4l-.9-9.3z"/></svg>
  <svg id="isk" width="16" height="16" viewBox="0 0 16 16" ><g fill="#4b726e"><path d="M8 1.5a5.4 5.4 0 0 0-3.1 9.8l1.2 1.3h3.7l1.2-1.3c1.4-1 2.3-2.6 2.3-4.4.1-3-2.3-5.4-5.3-5.4zM6.1 8.9c-.8 0-1.5-.7-1.5-1.5S5.3 6 6.1 6s1.5.7 1.5 1.5-.7 1.4-1.5 1.4zM8 10.4H6.7L8 9.1l1.3 1.3H8zm1.9-1.5c-.8 0-1.5-.7-1.5-1.5S9.1 6 9.9 6s1.5.7 1.5 1.5-.7 1.4-1.5 1.4z"/><path d="m11 11.9-1.1 1.2H6.1L5 11.9v2.6h6v-1.3z"/></g></svg>
</svg>