<svg xmlns="http://www.w3.org/2000/svg">
    <defs>
      <style>
      svg {display:none}
      svg:target {display:inline}
      </style>
    </defs>

      <svg id="mongol" width="23.8" height="47.9" viewBox="0 0 23.8 47.9"><path fill="#C77B58" d="m19 33 1-1 3-5-5-9-11-1-7 12 6 3v12h3l1-2 5-3 5 5h4z"/><path fill="#D1B187" d="M22 10V9c0-2-2-4-4-4h-7C9 5 7 7 7 9v3c0 2 5 8 7 8h4c2 0 4 0 4-2v-8z"/><path fill="none" d="m10 42-1 2h11l-4-5z"/><path fill="#79444A" d="M6 48h2l1-4H6zM20 44l1 2v2h3v-4zM6 6h17v4H6zM6 32h14v3H6z"/><path fill="#574852" d="m15 35-8 7-4-2 3-5zM16 35l4 6h4l-4-6z"/><path fill="#847875" d="M7 20h12v12H7z"/><path fill="#574852" d="m16 20 4 6h3l-3-6zM7 17l-7 7 8 4 9-11z"/><path fill="#C77B58" d="m7 6 8-6 7 6zM7 10 4 21h13l1-11z"/></svg>

      <svg id="shield" width="27.6" height="27.6" viewBox="0 0 27.6 27.6"><circle cx="13.8" cy="13.8" r="13.8" fill="#AE5D40"/><path fill="#79444A" d="M12 10h3v8h-3z"/><path fill="#D1B187" d="M12 12h3v3l-2 1h-3z"/></svg>

      <svg id="sword" width="8.7" height="31.6" viewBox="0 0 8.7 31.6"><path fill="#D1B187" d="m1 28-1 3 5 1 2-2-1-3H4z"/><path fill="#D2C9A5" d="M4 26V0s9 7 2 26H4z"/><path fill="#AE5D40" d="M3 26h4v1H3z"/></svg>

      <svg id="hand" width="10.4" height="4" viewBox="0 0 10.4 4"><path fill="#C77B58" d="M0 0h9v4H0z"/><path fill="#D1B187" d="M8 0h2v3L8 4H5z"/></svg>

      <svg id="bow" width="30.6" height="28.2" viewBox="0 0 30.6 28.2"><path fill="#574852" d="M21.2 27.7 2.9 14.1 21.2.5l.2.3L3.6 14.1l17.8 13.3z"/><path fill="#AE5D40" d="M20.8 0s2.7 4.4 2.7 14.1-2.7 14.1-2.7 14.1 4.7-3 4.7-14.1S20.8 0 20.8 0z"/><path fill="#4D4539" d="M6.8 13.7h22.6v.8H6.8z"/><path fill="#D2C9A5" d="m30.6 14.1-3-1.7.4 1.7-.4 1.7z"/><path fill="#D1B187" d="M.7 12.8 0 15.7l4.8.8 2.3-1.9-1-2.5-2.6-.1z"/></svg>

      <svg id="castle" width="44" height="103.8" viewBox="0 0 44 103.8"><path fill="#BA9158" d="M44 8V0h-8v8h-4V0h-8v8h-4V0h-8v8H8V0H0v104h44z"/><path fill="#927441" d="M0 16h44v4H0zM22 48h-5s0-16 5-16 5 16 5 16h-5z"/></svg>
  </svg>