<svg xmlns="http://www.w3.org/2000/svg">
    <defs>
      <style>
      svg { display: none }
      svg:target { display: inline }
      </style>
    </defs>

      <svg id="mongol" width="23.8" height="47.9" viewBox="0 0 23.8 47.9"><path fill="#C77B58" d="m19.2 32.5.9-.5 2.5-4.8-4.2-9.7-11.6-.4-6.8 12L5.8 32v11.5h3.6l.3-1.1 5.7-3.1 4.3 4.2h3.9z"/><path fill="#D1B187" d="M21.6 10.2v-1c0-2.1-1.7-3.9-3.9-3.9h-6.9C8.7 5.3 6.9 7 6.9 9.2v2.7c0 2.1 4.8 8.1 7 8.1h3.9c2.1 0 3.9 0 3.9-2.1v-2.6l.7-.2-.8-4.9z"/><path fill="none" d="m9.7 42.4-.3 1.1h10.3l-3.5-4.4z"/><path fill="#79444A" d="M5.8 47.9h2.3l1.3-4.4H5.8zM19.7 43.5l1.7 2.1v2.3h2.4V44l-.2-.5zM6 6.1h16.5v4H6zM5.8 32H20v2.6H5.8z"/><path fill="#574852" d="M14.7 34.6 6.6 42l-3.5-2.2 2.7-5.2zM15.7 34.6l4.2 6.1h3.6l-3.4-6.1z"/><path fill="#847875" d="M6.5 20.1h12.6v12H6.5z"/><path fill="#574852" d="m15.8 20 3.9 5.9H23L19.7 20zM6.9 17 .2 24.4l7.7 3.9 9.5-11z"/><path fill="#C77B58" d="M6.9 6.1 14.5 0l7.1 6.1zM6.5 10.2 3.6 21h13.2l1.6-10.8z"/></svg>

      <svg id="shield" width="27.6" height="27.6" viewBox="0 0 27.6 27.6"><circle cx="13.8" cy="13.8" r="13.8" fill="#AE5D40"/><path fill="#79444A" d="M12.4 9.7h2.7v8.1h-2.7z"/><path fill="#D1B187" d="M12.3 11.8h2.9l-.3 2.9-2.2 1.1h-2.5z"/></svg>

      <svg id="sword" width="8.7" height="31.6" viewBox="0 0 8.7 31.6"><path fill="#D1B187" d="M.7 27.9 0 30.8l4.8.8 2.3-2-1-2.4-2.6-.1z"/><path fill="#D2C9A5" d="M4.1 26V0S13 6.5 5.9 26H4.1z"/><path fill="#AE5D40" d="M3 26h4.1v1.1H3z"/></svg>

      <svg id="hand" width="9.8" height="4" viewBox="0 0 9.8 4"><path fill="#C77B58" d="M6.8 3.9H0V.1h8.4z"/><path fill="#D1B187" d="M7.1.1h2.7l-.3 2.7-2.1 1.1L5 3.8z"/><path fill="#C77B58" d="M-103.5-21.3h2.2v1h-2.2z"/><path fill="#D1B187" d="M-101.6-21.3h.7l-.1.7-.5.3h-.6z"/></svg>

      <svg id="bow" width="8" height="7" viewBox="0 0 8 7"><path fill="#574852" d="M5.5 6.9.9 3.5 5.5.1v.1L1.1 3.5l4.4 3.3z"/><path fill="#AE5D40" d="M5.4 0s.7 1.1.7 3.5S5.4 7 5.4 7s1.2-.7 1.2-3.5S5.4 0 5.4 0z"/><path fill="#4D4539" d="M1.5 3.4h6v.2h-6z"/><path fill="#D2C9A5" d="m7.8 3.5-.7-.4.1.4-.1.4z"/><path fill="#D1B187" d="m.3 3.2-.1.7 1.2.2.5-.5-.2-.6h-.6z"/></svg>
  </svg>