<svg xmlns="http://www.w3.org/2000/svg">
    <defs>
      <style>
      svg { display: none }
      svg:target { display: inline }
      </style>
    </defs>

      <svg id="mongol" width="12.2" height="24.7" viewBox="0 0 12.2 24.7"><path fill="#C77B58" d="m9.9 16.7.4-.2 1.4-2.5-2.2-5-6-.2L0 15l3 1.5v5.9h1.8l.2-.6 2.9-1.6 2.2 2.2h2z"/><path fill="#D1B187" d="M11.2 5.2v-.5c0-1.1-.9-2-2-2H5.6c-1.1 0-2 .9-2 2v1.4c0 1.1 2.5 4.2 3.6 4.2h2c1.1 0 2 0 2-1.1V7.9l.3-.1-.3-2.6z"/><path fill="#79444A" d="M3 24.7h1.2l.6-2.3H3zM10.1 22.4l.9 1.1v1.2h1.2v-2l-.1-.3zM3.1 3.2h8.5v2.1H3.1zM3 16.5h7.3v1.3H3z"/><path fill="#574852" d="m7.6 17.8-4.2 3.9-1.8-1.2L3 17.8zM8.1 17.8l2.1 3.2h1.9l-1.8-3.2z"/><path fill="#847875" d="M3.3 10.3h6.5v6.2H3.3z"/><path fill="#574852" d="m8.2 10.3 2 3h1.6l-1.7-3zM3.6 8.7.1 12.6l4 2L9 8.9z"/><path fill="#C77B58" d="M3.6 3.2 7.5 0l3.7 3.2zM3.3 5.2l-1.5 5.6h6.9l.8-5.6z"/></svg>

      <svg id="shield" width="6.9" height="6.9" viewBox="0 0 6.9 6.9"><circle cx="3.5" cy="3.5" r="3.5" fill="#AE5D40"/><path fill="#79444A" d="M3.1 2.4h.7v2h-.7z"/><path fill="#D1B187" d="M3.1 3h.7l-.1.7-.5.3-.6-.1z"/></svg>

      <svg id="sword" width="2.2" height="7.9" viewBox="0 0 2.2 7.9"><path fill="#D1B187" d="m.2 7-.2.7 1.2.2.6-.5-.3-.6H.9z"/><path fill="#D2C9A5" d="M1 6.5V0s2.2 1.6.4 6.5H1z"/><path fill="#AE5D40" d="M.8 6.5h1v.3h-1z"/></svg>

      <svg id="hand" width="9.8" height="4" viewBox="0 0 9.8 4"><path fill="#C77B58" d="M6.8 3.9H0V.1h8.4z"/><path fill="#D1B187" d="M7.1.1h2.7l-.3 2.7-2.1 1.1L5 3.8z"/><path fill="#C77B58" d="M-103.5-21.3h2.2v1h-2.2z"/><path fill="#D1B187" d="M-101.6-21.3h.7l-.1.7-.5.3h-.6z"/></svg>

      <svg id="bow" width="8" height="7" viewBox="0 0 8 7"><path fill="#574852" d="M5.5 6.9.9 3.5 5.5.1v.1L1.1 3.5l4.4 3.3z"/><path fill="#AE5D40" d="M5.4 0s.7 1.1.7 3.5S5.4 7 5.4 7s1.2-.7 1.2-3.5S5.4 0 5.4 0z"/><path fill="#4D4539" d="M1.5 3.4h6v.2h-6z"/><path fill="#D2C9A5" d="m7.8 3.5-.7-.4.1.4-.1.4z"/><path fill="#D1B187" d="m.3 3.2-.1.7 1.2.2.5-.5-.2-.6h-.6z"/></svg>
  </svg>