<svg xmlns="http://www.w3.org/2000/svg">

<defs>
		<style>
		.img { display: none }
		.img:target { display: inline }
		</style>
	</defs>

		<svg width="12.2" height="24.7" viewBox="0 0 12.2 24.7" class="img" id="body"><path fill="#C77B58" d="m9.9 16.7.4-.2 1.4-2.5-2.2-5-6-.2L0 15l3 1.5v5.9h1.8l.2-.6 2.9-1.6 2.2 2.2h2z"/><path fill="#D1B187" d="M11.2 5.2v-.5c0-1.1-.9-2-2-2H5.6c-1.1 0-2 .9-2 2v1.4c0 1.1 2.5 4.2 3.6 4.2h2c1.1 0 2 0 2-1.1V7.9l.3-.1-.3-2.6z"/><path fill="#79444A" d="M3 24.7h1.2l.6-2.3H3zM10.1 22.4l.9 1.1v1.2h1.2v-2l-.1-.3zM3.1 3.2h8.5v2.1H3.1zM3 16.5h7.3v1.3H3z"/><path fill="#574852" d="m7.6 17.8-4.2 3.9-1.8-1.2L3 17.8zM8.1 17.8l2.1 3.2h1.9l-1.8-3.2z"/><path fill="#847875" d="M3.3 10.3h6.5v6.2H3.3z"/><path fill="#574852" d="m8.2 10.3 2 3h1.6l-1.7-3zM3.6 8.7.1 12.6l4 2L9 8.9z"/><path fill="#C77B58" d="M3.6 3.2 7.5 0l3.7 3.2zM3.3 5.2l-1.5 5.6h6.9l.8-5.6z"/></svg>

    <svg  viewBox="0 0 6.9 6.9">
      <g class="img" id="shield">
        <circle fill="#AE5D40" cx="3.5" cy="3.5" r="3.5"></circle>
        <rect x="3.1" y="2.4" fill="#79444A" width="0.7" height="2"></rect>
        <polygon fill="#D1B187" points="3.1,3 3.8,3 3.7,3.7 3.2,4 2.6,3.9 	"></polygon>
      </g>
    </svg>

    <svg  viewBox="0 0 2.2 7.9">
      <g class="img" id="shield">
        <polygon fill="#D1B187" points="0.2,7 0,7.7 1.2,7.9 1.8,7.4 1.5,6.8 0.9,6.8 	"></polygon>
        <path fill="#D2C9A5" d="M1,6.5V0c0,0,2.2,1.6,0.4,6.5H1z"></path>
        <rect x="0.8" y="6.5" fill="#AE5D40" width="1" height="0.3"></rect>
      </g>
    </svg>
  </svg>